# JARVIS anatomical brain mesh — CC BY 4.0 FrankJohansson (skfb.ly/6SDzJ)
# Further decimated for HUD. Normalized Y-up (brainstem -Y). Geometry only.
v -0.778007 -0.160005 -0.217408
v -0.776001 -0.199322 -0.133760
v -0.765069 -0.183876 -0.000765
v -0.772959 -0.083512 -0.387312
v -0.777305 -0.111562 -0.295139
v -0.818979 -0.089045 -0.194039
v -0.776402 -0.118231 -0.115054
v -0.787201 -0.091703 -0.002303
v -0.764266 0.003781 -0.527980
v -0.798769 0.000722 -0.404915
v -0.793854 -0.016981 -0.301407
v -0.823676 -0.008589 -0.201728
v -0.833321 -0.018937 -0.087121
v -0.790511 -0.002037 0.005052
v -0.774697 0.006338 0.096072
v -0.769883 0.071682 -0.502454
v -0.791146 0.100994 -0.403912
v -0.843000 0.070077 -0.316402
v -0.846209 0.081979 -0.178526
v -0.826752 0.102875 -0.088124
v -0.833547 0.090513 -0.001718
v -0.794085 0.090458 0.107536
v -0.812309 0.174320 -0.318408
v -0.830087 0.168896 -0.187294
v -0.840392 0.209324 -0.106713
v -0.818694 0.195867 0.006540
v -0.804291 0.209943 0.100296
v -0.769732 0.277744 -0.403260
v -0.806216 0.276816 -0.315499
v -0.832118 0.282358 -0.214800
v -0.815919 0.289830 -0.103854
v -0.820734 0.277242 -0.009758
v -0.820282 0.295321 0.110139
v -0.771187 0.256096 0.197607
v -0.769783 0.349507 -0.290174
v -0.775525 0.365153 -0.206501
v -0.777363 0.374481 -0.109496
v -0.799044 0.386767 0.000790
v -0.796562 0.374247 0.082850
v -0.763798 0.347601 0.163121
v -0.767275 0.449905 -0.167660
v -0.688742 -0.305136 -0.358928
v -0.681671 -0.322187 -0.279492
v -0.699098 -0.299946 -0.194214
v -0.705960 -0.283004 -0.099257
v -0.710456 -0.283321 -0.032660
v -0.692353 -0.180767 -0.509676
v -0.702266 -0.202114 -0.422784
v -0.740621 -0.210505 -0.303137
v -0.760555 -0.224597 -0.199856
v -0.757346 -0.189794 -0.071575
v -0.718932 -0.213289 0.033311
v -0.691066 -0.218863 0.094351
v -0.685733 -0.190095 0.176160
v -0.700678 -0.088493 -0.581288
v -0.721915 -0.092204 -0.504285
v -0.747517 -0.130919 -0.424222
v -0.754236 -0.134630 0.036646
v -0.736735 -0.115557 0.111468
v -0.687717 -0.095180 0.213337
v -0.693924 -0.006650 -0.619568
v -0.727056 -0.039748 0.118188
v -0.722342 -0.012568 0.206751
v -0.692403 0.078202 -0.607215
v -0.735046 0.115044 -0.521811
v -0.753534 0.046508 0.152089
v -0.734269 0.097367 0.217199
v -0.664590 0.113627 0.298904
v -0.708426 0.178750 -0.611327
v -0.754638 0.198408 -0.508723
v -0.754638 0.187526 -0.416900
v -0.757647 0.179803 0.149381
v -0.741382 0.188094 0.228566
v -0.680200 0.183848 0.291018
v -0.704790 0.278396 -0.571860
v -0.728259 0.284848 -0.492291
v -0.728761 0.316108 -0.445385
v -0.759151 0.291334 0.168136
v -0.716562 0.291869 0.298544
v -0.684680 0.369516 -0.508672
v -0.736032 0.373528 -0.402507
v -0.735330 0.414399 -0.325128
v -0.758817 0.402297 0.150116
v -0.728594 0.376387 0.221495
v -0.707397 0.382605 0.283704
v -0.695261 0.473776 -0.412153
v -0.704188 0.467357 -0.295139
v -0.711309 0.488386 -0.218812
v -0.711198 0.497903 -0.113645
v -0.716876 0.478552 -0.015734
v -0.711618 0.470349 0.103344
v -0.718907 0.448776 0.200733
v -0.665874 0.532450 -0.281398
v -0.687739 0.547194 -0.159937
v -0.703285 0.536061 0.014681
v -0.669259 0.540850 0.084363
v -0.682122 0.544185 0.162319
v -0.606983 -0.350688 -0.191682
v -0.614330 -0.353037 -0.092663
v -0.590801 -0.349819 -0.025238
v -0.647971 -0.253132 -0.490920
v -0.624762 -0.299820 -0.411273
v -0.606435 -0.338448 -0.298235
v -0.647520 -0.347361 -0.164752
v -0.616745 -0.314081 0.016468
v -0.616289 -0.280325 0.122902
v -0.599477 -0.261206 0.221896
v -0.614438 -0.186735 -0.581004
v -0.633428 -0.212762 -0.538210
v -0.640048 -0.194458 0.217182
v -0.579317 -0.190730 0.303471
v -0.612375 -0.112304 -0.625058
v -0.613128 -0.098794 0.318252
v -0.628965 0.028028 -0.676822
v -0.614873 -0.029217 -0.661626
v -0.635005 0.005876 0.319586
v -0.575004 0.008194 0.419282
v -0.631823 0.088056 -0.674866
v -0.610777 0.110330 0.355375
v -0.599745 0.067353 0.400743
v -0.627962 0.151795 -0.670553
v -0.617807 0.219671 -0.658793
v -0.618609 0.160120 0.346867
v -0.595632 0.197364 0.420962
v -0.620406 0.280235 -0.616827
v -0.657558 0.265499 0.344660
v -0.619269 0.277008 0.421823
v -0.575406 0.301264 0.487752
v -0.601684 0.366959 -0.583695
v -0.628212 0.402263 -0.520407
v -0.658285 0.387720 0.332056
v -0.609482 0.379412 0.423168
v -0.614070 0.472522 -0.500950
v -0.640499 0.517104 -0.410983
v -0.652835 0.479693 0.251684
v -0.641828 0.471703 0.308051
v -0.590450 0.482267 0.402677
v -0.584934 0.536913 -0.465946
v -0.578114 0.572769 -0.381495
v -0.611613 0.577082 -0.304065
v -0.630202 0.579289 -0.201862
v -0.636320 0.581462 -0.090632
v -0.641000 0.593782 0.005303
v -0.633679 0.607071 0.078771
v -0.635601 0.574905 0.217821
v -0.598211 0.556542 0.315716
v -0.574653 0.529541 0.418329
v -0.575807 0.634854 -0.218311
v -0.574102 0.629739 -0.111995
v -0.586789 0.643981 0.008713
v -0.586413 0.635079 0.130123
v -0.564674 -0.267123 -0.497439
v -0.535036 -0.283046 -0.427055
v -0.511015 -0.284274 -0.313769
v -0.508574 -0.306557 -0.204704
v -0.505832 -0.318898 -0.115217
v -0.508883 -0.330119 -0.000247
v -0.513255 -0.311020 0.113524
v -0.511641 -0.306916 0.193336
v -0.501269 -0.277086 0.300295
v -0.467786 -0.183274 -0.675668
v -0.515729 -0.167628 -0.574167
v -0.518102 -0.225834 -0.518284
v -0.483032 -0.249571 -0.418605
v -0.517032 -0.229411 0.358602
v -0.500483 -0.201228 0.410221
v -0.497976 -0.103454 -0.720234
v -0.495067 -0.096283 -0.626656
v -0.517383 -0.102710 0.421313
v -0.495168 0.019277 -0.780830
v -0.516447 -0.003491 -0.726135
v -0.509134 -0.000545 -0.614737
v -0.518269 -0.020424 0.433992
v -0.502289 0.081612 -0.793668
v -0.548476 0.093447 -0.732437
v -0.509020 0.087733 -0.627354
v -0.514131 0.129102 0.422754
v -0.531375 0.055835 0.470784
v -0.497976 0.153976 -0.792164
v -0.507688 0.192424 -0.730197
v -0.512606 0.196164 -0.630124
v -0.532980 0.151469 0.421438
v -0.498576 0.170260 0.517680
v -0.498828 0.289153 -0.741137
v -0.504815 0.274604 -0.618150
v -0.517091 0.271826 0.524552
v -0.500903 0.356054 -0.607754
v -0.506023 0.385115 0.518731
v -0.503693 0.502085 -0.521912
v -0.510864 0.484825 0.488086
v -0.519339 0.541577 -0.501953
v -0.499681 0.587814 -0.432496
v -0.544313 0.597041 -0.312390
v -0.538897 0.583827 0.419407
v -0.530222 0.529040 0.467826
v -0.509009 0.672582 -0.302343
v -0.507404 0.708121 -0.206175
v -0.535721 0.677380 -0.105844
v -0.532378 0.688780 0.014413
v -0.518662 0.689917 0.115530
v -0.513773 0.666761 0.201849
v -0.511767 0.661968 0.317948
v -0.491507 0.643630 0.410756
v -0.475384 0.746234 -0.108410
v -0.486492 0.748391 0.036044
v -0.394419 -0.282218 -0.639210
v -0.442612 -0.266822 -0.274477
v -0.439101 -0.273141 -0.206877
v -0.413149 -0.263387 -0.099483
v -0.410278 -0.270258 0.004776
v -0.400344 -0.293067 0.121882
v -0.428252 -0.311488 0.229268
v -0.408209 -0.302528 0.295414
v -0.403495 -0.279727 0.398453
v -0.418540 -0.255188 0.471136
v -0.418590 -0.213745 -0.726589
v -0.436209 -0.209552 -0.620989
v -0.398180 -0.183676 -0.527930
v -0.433535 -0.193655 -0.398529
v -0.417286 -0.209402 -0.307024
v -0.409914 -0.221709 -0.202012
v -0.411369 -0.180867 0.520933
v -0.442612 -0.107500 -0.781833
v -0.428530 -0.086427 -0.530477
v -0.397628 -0.111595 -0.434853
v -0.414629 -0.102234 0.528029
v -0.403771 -0.018360 -0.801466
v -0.463373 -0.039849 -0.769346
v -0.428067 0.005569 -0.523426
v -0.416802 -0.002622 0.528339
v -0.418490 0.072485 -0.837549
v -0.464476 0.125728 0.452910
v -0.428016 0.085904 0.521450
v -0.372102 0.131660 0.570831
v -0.413258 0.166330 -0.824309
v -0.414160 0.204175 0.583887
v -0.411419 0.281104 -0.805152
v -0.427316 0.294105 0.595467
v -0.421449 0.366598 -0.720642
v -0.463139 0.400374 -0.616225
v -0.443502 0.390140 -0.544830
v -0.451739 0.393036 0.568224
v -0.410724 0.376046 0.602412
v -0.377819 0.471469 -0.680282
v -0.431353 0.473600 -0.620605
v -0.418890 0.488667 -0.503454
v -0.450109 0.482100 0.535301
v -0.393716 0.480897 0.577451
v -0.400186 0.547695 -0.592170
v -0.411971 0.579155 -0.469790
v -0.444668 0.597593 0.445509
v -0.421950 0.573752 0.508466
v -0.413926 0.638214 -0.410515
v -0.431529 0.696587 -0.345137
v -0.445019 0.710378 0.149982
v -0.460565 0.703959 0.250681
v -0.410867 0.672315 0.396464
v -0.391059 0.742975 -0.289472
v -0.422201 0.753205 -0.186567
v -0.406103 0.781288 -0.087573
v -0.412071 0.776959 0.001458
v -0.416166 0.769319 0.120495
v -0.405351 0.763185 0.201101
v -0.432080 0.735302 0.306998
v -0.283623 -0.656677 -0.276707
v -0.293245 -0.690469 -0.223980
v -0.273770 -0.613772 -0.281398
v -0.277754 -0.584669 -0.194753
v -0.335527 -0.295658 -0.698152
v -0.319931 -0.309683 -0.615322
v -0.339907 -0.267123 0.114627
v -0.330495 -0.299709 0.197106
v -0.336263 -0.317729 0.318505
v -0.316011 -0.309324 0.417677
v -0.328673 -0.270483 0.510477
v -0.320750 -0.189393 -0.797028
v -0.332953 -0.221555 -0.764866
v -0.313353 -0.245008 -0.504686
v -0.311372 -0.173195 -0.449697
v -0.357008 -0.166124 -0.209535
v -0.299123 -0.198820 -0.106906
v -0.321498 -0.223523 -0.012711
v -0.293494 -0.221513 0.093766
v -0.368291 -0.206945 0.537131
v -0.290560 -0.213138 0.582316
v -0.300005 -0.101498 -0.820849
v -0.360167 -0.121090 -0.469657
v -0.314732 -0.087891 -0.382147
v -0.314531 -0.108126 -0.295565
v -0.297581 -0.097921 -0.206175
v -0.292666 -0.123296 -0.111180
v -0.277918 -0.135405 -0.032737
v -0.312225 -0.118382 0.616667
v -0.308547 -0.014440 -0.817690
v -0.331545 -0.020001 -0.408395
v -0.283289 -0.028535 -0.333402
v -0.303900 -0.027763 0.603177
v -0.311857 0.089970 -0.860149
v -0.332238 0.106389 0.546793
v -0.288504 0.086696 0.590929
v -0.340910 0.195299 -0.816436
v -0.315705 0.179155 0.624846
v -0.305003 0.232058 0.704629
v -0.323884 0.294694 -0.811521
v -0.346769 0.266201 0.623513
v -0.308915 0.294744 0.709242
v -0.297982 0.388974 -0.779978
v -0.359364 0.393738 -0.729026
v -0.335619 0.384862 0.650994
v -0.304953 0.384586 0.690186
v -0.317139 0.457377 -0.724613
v -0.325326 0.492506 0.639046
v -0.295074 0.470265 0.680557
v -0.311623 0.531948 -0.680583
v -0.319772 0.557599 -0.627325
v -0.352394 0.581696 -0.544228
v -0.338549 0.575647 -0.427474
v -0.365984 0.586209 0.561704
v -0.317340 0.544653 0.587748
v -0.299060 0.632371 -0.503407
v -0.322159 0.666281 -0.375659
v -0.285796 0.705313 -0.321066
v -0.366536 0.709124 0.354640
v -0.359364 0.679436 0.461557
v -0.313712 0.646923 0.541461
v -0.308614 0.754258 -0.297345
v -0.326550 0.784615 -0.202213
v -0.350990 0.802501 -0.097452
v -0.342715 0.814437 0.033436
v -0.361320 0.805360 0.098931
v -0.312091 0.795029 0.208991
v -0.314582 0.776691 0.304240
v -0.317490 0.735001 0.430064
v -0.303198 0.834045 -0.108585
v -0.298785 0.832578 -0.003323
v -0.312225 0.841191 0.124005
v -0.273309 0.824015 0.303739
v -0.210751 -0.687056 -0.303336
v -0.230560 -0.697052 -0.207372
v -0.215913 -0.588309 -0.306065
v -0.224690 -0.613050 -0.170368
v -0.207363 -0.569922 -0.130901
v -0.177349 -0.512041 -0.281346
v -0.225438 -0.491163 -0.229316
v -0.228905 -0.503668 -0.131345
v -0.177324 -0.352978 -0.705858
v -0.205533 -0.361880 -0.653678
v -0.202292 -0.391152 -0.196906
v -0.211627 -0.396021 -0.083421
v -0.172522 -0.363114 -0.034548
v -0.230858 -0.320331 -0.716640
v -0.220552 -0.337231 -0.578580
v -0.216089 -0.289710 -0.507449
v -0.200172 -0.325497 -0.171265
v -0.238849 -0.317928 -0.090318
v -0.212984 -0.289205 -0.011372
v -0.255155 -0.252831 0.156903
v -0.233792 -0.266839 0.213989
v -0.203117 -0.291434 0.304881
v -0.208316 -0.318810 0.396715
v -0.218680 -0.298600 0.511004
v -0.207213 -0.274646 0.601823
v -0.205274 -0.211057 -0.789272
v -0.234193 -0.249371 -0.765033
v -0.232789 -0.208349 -0.429136
v -0.212921 -0.204943 -0.108942
v -0.227008 -0.207229 0.027762
v -0.206347 -0.187885 0.094688
v -0.185436 -0.204776 0.168851
v -0.220703 -0.208850 0.614411
v -0.199440 -0.096667 -0.842814
v -0.238957 -0.136335 -0.390371
v -0.218847 -0.077636 -0.339696
v -0.203551 -0.108375 -0.109134
v -0.221480 -0.087342 0.005017
v -0.236124 -0.094737 0.656987
v -0.209419 0.005085 -0.874057
v -0.220810 -0.020234 -0.295712
v -0.223374 0.004111 -0.204658
v -0.212098 0.011489 -0.088585
v -0.208900 0.023134 0.017828
v -0.211169 0.016920 0.631612
v -0.220987 0.110999 -0.853028
v -0.179783 0.043947 -0.261520
v -0.210513 0.045111 -0.235570
v -0.210022 0.086306 0.618183
v -0.224364 0.184668 -0.849885
v -0.212341 0.156873 0.658830
v -0.212102 0.203147 0.704077
v -0.212453 0.276916 -0.849384
v -0.235660 0.266147 0.711336
v -0.214234 0.361843 -0.795825
v -0.225881 0.379922 0.726932
v -0.201095 0.434960 -0.795524
v -0.229905 0.484758 -0.735095
v -0.211877 0.492669 0.706797
v -0.185448 0.537264 -0.668447
v -0.229880 0.559731 -0.649190
v -0.223070 0.575126 0.641963
v -0.209119 0.644482 -0.589688
v -0.232388 0.685671 -0.501250
v -0.219148 0.710930 -0.395436
v -0.245662 0.678493 -0.313885
v -0.172811 0.688011 0.532417
v -0.200192 0.655716 0.585575
v -0.208040 0.750948 -0.319185
v -0.216133 0.766669 -0.228488
v -0.263881 0.807366 0.199529
v -0.212178 0.799292 0.348873
v -0.226219 0.767999 0.424246
v -0.239910 0.728431 0.502930
v -0.235397 0.833343 -0.160940
v -0.218321 0.839311 -0.098756
v -0.219550 0.865839 -0.003034
v -0.215914 0.850719 0.120470
v -0.209921 0.856010 0.223099
v -0.203251 0.847685 0.285585
v -0.139161 -0.688232 -0.306806
v -0.148869 -0.655342 -0.215932
v -0.121316 -0.593383 -0.306790
v -0.126837 -0.581563 -0.186070
v -0.163483 -0.546603 -0.128043
v -0.112632 -0.509342 -0.280186
v -0.074369 -0.533790 -0.219840
v -0.134401 -0.483157 -0.109267
v -0.125871 -0.356489 -0.710572
v -0.135985 -0.375144 -0.622193
v -0.116678 -0.409279 -0.260101
v -0.163383 -0.434094 -0.252888
v -0.120778 -0.403685 -0.067343
v -0.111131 -0.365723 -0.006102
v -0.109757 -0.318442 -0.736783
v -0.125169 -0.329910 -0.533145
v -0.126663 -0.271107 -0.437550
v -0.116189 -0.320451 -0.236028
v -0.134347 -0.323867 0.028497
v -0.144903 -0.267499 0.304767
v -0.129156 -0.297589 0.405140
v -0.109519 -0.298299 0.519441
v -0.145241 -0.273931 0.611402
v -0.115140 -0.242651 -0.781582
v -0.126574 -0.172342 -0.769848
v -0.146633 -0.187420 -0.393029
v -0.094574 -0.161303 -0.287326
v -0.119451 -0.212235 -0.182953
v -0.162394 -0.184449 -0.141397
v -0.125858 -0.216505 0.071900
v -0.130361 -0.200720 0.218306
v -0.111278 -0.244005 0.285284
v -0.135839 -0.212950 0.655658
v -0.129984 -0.114571 -0.807359
v -0.108128 -0.127890 -0.305156
v -0.111424 -0.089618 -0.187534
v -0.165010 -0.065894 -0.145700
v -0.127981 -0.095838 0.109525
v -0.145998 -0.106246 0.692392
v -0.131739 -0.018184 -0.842263
v -0.131691 -0.000523 -0.277981
v -0.112440 0.021971 -0.184026
v -0.166210 0.022491 -0.142332
v -0.121734 0.027949 0.112210
v -0.113357 -0.021241 0.706857
v -0.127075 0.106285 -0.844018
v -0.128212 0.090196 0.628590
v -0.120932 0.089234 0.696956
v -0.119252 0.186824 -0.849484
v -0.096053 0.200204 0.729402
v -0.107868 0.269018 -0.859765
v -0.105294 0.248173 0.743009
v -0.111629 0.296048 0.790333
v -0.120104 0.384812 -0.812048
v -0.119620 0.412026 0.757251
v -0.149441 0.350710 0.783964
v -0.120656 0.465752 -0.750992
v -0.116042 0.490776 0.765610
v -0.086555 0.466955 0.786371
v -0.120623 0.565214 -0.715386
v -0.162580 0.618906 -0.650493
v -0.120355 0.595838 0.671079
v -0.110952 0.558627 0.724813
v -0.090934 0.677781 -0.600813
v -0.168147 0.714590 -0.460229
v -0.123448 0.662970 0.633016
v -0.103204 0.748090 -0.496236
v -0.111027 0.778380 -0.411885
v -0.144326 0.791795 -0.304517
v -0.141334 0.779230 -0.198136
v -0.124796 0.804418 -0.140017
v -0.146733 0.811378 0.324701
v -0.132658 0.801181 0.405675
v -0.118884 0.756314 0.499553
v -0.105611 0.821508 -0.283404
v -0.108219 0.816744 -0.206074
v -0.124210 0.854636 -0.082745
v -0.125533 0.866428 -0.004790
v -0.137222 0.871874 0.095136
v -0.128780 0.880215 0.182295
v -0.102076 0.867319 0.275680
v -0.079233 0.829431 0.414768
v -0.072463 -0.479504 -0.257126
v -0.059263 -0.481008 -0.186017
v -0.058271 -0.375796 -0.670804
v -0.018917 -0.380635 -0.617470
v -0.021587 -0.365591 -0.528030
v -0.071861 -0.415639 -0.261715
v -0.019810 -0.387133 -0.196243
v -0.037674 -0.396925 -0.108499
v -0.025366 -0.356817 -0.037565
v -0.010646 -0.291713 -0.732186
v -0.033021 -0.332492 -0.490845
v -0.011658 -0.283823 -0.409629
v -0.037580 -0.318896 -0.263063
v -0.004380 -0.316944 -0.241728
v -0.021174 -0.302796 0.022798
v -0.052153 -0.275398 0.071951
v -0.043978 -0.257227 0.427239
v -0.051049 -0.286631 0.499520
v -0.049294 -0.265807 0.598965
v -0.017884 -0.181737 -0.795022
v -0.057970 -0.227004 -0.758013
v -0.053757 -0.242651 -0.387814
v -0.018630 -0.202223 -0.301574
v -0.038644 -0.201721 -0.223110
v 0.023712 -0.185842 0.049504
v -0.035253 -0.215694 0.087776
v -0.053983 -0.160181 0.223977
v -0.041176 -0.191067 0.318056
v 0.001908 -0.196581 0.387897
v -0.007409 -0.237536 0.514698
v -0.021204 -0.208650 0.627282
v -0.029285 -0.092304 -0.829124
v -0.021683 -0.123978 -0.293703
v -0.034864 -0.101045 -0.214839
v -0.025159 -0.089633 0.109574
v -0.030136 -0.097972 0.196518
v 0.006658 -0.142754 0.309036
v 0.021767 -0.139545 0.379363
v 0.005585 -0.125169 0.669636
v -0.027424 -0.088768 0.700820
v -0.037910 -0.003808 -0.827519
v -0.045964 0.002154 -0.270357
v -0.023714 0.021989 -0.214911
v 0.019648 0.003648 0.048184
v -0.041701 0.015529 0.126796
v -0.022046 0.002287 0.201516
v 0.014223 0.022917 0.281546
v 0.006813 0.034599 0.651927
v -0.017829 -0.003321 0.696299
v -0.008356 0.081110 -0.850654
v 0.009460 0.042047 0.186509
v -0.016278 0.049907 0.543338
v -0.031783 0.077201 0.628836
v -0.017149 0.118789 0.712569
v -0.002890 0.183113 -0.864027
v -0.020860 0.164558 0.753875
v -0.013438 0.198057 0.788879
v -0.022297 0.278446 -0.834790
v 0.000704 0.264755 0.798206
v -0.001636 0.362161 -0.800238
v -0.023501 0.376420 0.792890
v -0.040618 0.479743 -0.752998
v -0.009677 0.496393 0.786120
v -0.028758 0.559054 -0.695502
v -0.008523 0.583200 -0.636552
v -0.043104 0.583245 0.723228
v -0.012736 0.653609 -0.576674
v 0.002409 0.696537 -0.512283
v -0.020847 0.686783 0.633141
v -0.000098 0.634954 0.701720
v -0.014040 0.775772 -0.490418
v -0.021913 0.791218 -0.397593
v -0.058171 0.813333 -0.330494
v -0.035804 0.812080 0.461908
v -0.018703 0.775722 0.511154
v -0.000198 0.753506 0.572336
v -0.014836 0.825520 -0.293774
v -0.033531 0.856578 -0.200441
v -0.021736 0.845516 -0.106124
v -0.028398 0.862881 -0.000972
v -0.018829 0.885485 0.095483
v -0.017211 0.887341 0.189011
v -0.022327 0.874603 0.330167
v 0.009029 0.818298 0.423093
v 0.068330 -0.354315 -0.629406
v 0.065597 -0.365164 -0.529986
v 0.045537 -0.350270 -0.092578
v 0.100584 -0.299453 -0.693588
v 0.098695 -0.339338 -0.484601
v 0.081410 -0.302253 -0.398938
v 0.062086 -0.261306 -0.350002
v 0.036761 -0.298780 -0.193600
v 0.064505 -0.302721 -0.117537
v 0.060144 -0.291802 -0.027142
v 0.065246 -0.211508 -0.751593
v 0.053843 -0.207856 -0.271839
v 0.081497 -0.205766 -0.193958
v 0.106379 -0.202766 -0.090442
v 0.085653 -0.204827 -0.003512
v 0.033535 -0.185314 0.425918
v 0.045091 -0.172013 0.510285
v 0.048095 -0.172994 0.589938
v 0.070913 -0.086738 -0.797530
v 0.120058 -0.110960 -0.767140
v 0.051035 -0.125528 -0.263614
v 0.075459 -0.097123 -0.202741
v 0.113634 -0.100884 -0.127235
v 0.087363 -0.089923 0.028511
v 0.033869 -0.097018 0.065816
v 0.055588 -0.093096 0.307126
v 0.093937 -0.088388 0.427709
v 0.091809 -0.096181 0.513348
v 0.063106 -0.100307 0.621132
v 0.079037 0.010300 -0.843667
v 0.083322 0.024007 -0.190044
v 0.112005 0.025889 -0.149191
v 0.079771 0.009026 0.023663
v 0.061370 0.022760 0.094835
v 0.068017 0.001422 0.321690
v 0.094220 0.005840 0.411178
v 0.073666 0.016459 0.502270
v 0.067424 0.006009 0.629107
v 0.082898 0.100819 -0.836495
v 0.070481 0.041162 0.101880
v 0.065204 0.046839 0.188919
v 0.088342 0.044518 0.310353
v 0.082677 0.044328 0.652741
v 0.089242 0.083931 0.730280
v 0.122967 0.114409 0.802218
v 0.092878 0.207435 -0.852543
v 0.070035 0.194321 0.789255
v 0.097291 0.304674 -0.838100
v 0.079237 0.287372 0.835116
v 0.093078 0.369566 -0.812976
v 0.075426 0.397249 0.828947
v 0.086283 0.487483 -0.723861
v 0.057172 0.511889 0.762601
v 0.066399 0.477888 0.807133
v 0.061660 0.602132 -0.632465
v 0.057406 0.576547 0.740769
v 0.090069 0.655916 -0.578379
v 0.063942 0.711230 -0.537759
v 0.072718 0.714490 0.602057
v 0.086735 0.660104 0.700491
v 0.038115 0.728231 -0.468353
v 0.074323 0.773916 -0.410197
v 0.101202 0.803454 -0.320665
v 0.070010 0.787306 0.539137
v 0.053160 0.834881 -0.279359
v 0.068593 0.872171 -0.201235
v 0.075025 0.876003 -0.112246
v 0.054849 0.861721 0.021296
v 0.085338 0.851080 0.120020
v 0.054915 0.886801 0.238194
v 0.088853 0.865137 0.312239
v 0.074841 0.840180 0.430950
v 0.142776 -0.358093 -0.516345
v 0.167399 -0.256341 -0.697031
v 0.167574 -0.315056 -0.620725
v 0.182594 -0.327252 -0.498893
v 0.155150 -0.328405 -0.414781
v 0.168887 -0.279351 -0.299761
v 0.214539 -0.268527 -0.216907
v 0.163889 -0.195444 -0.737585
v 0.123243 -0.245158 -0.284432
v 0.156032 -0.211776 -0.189030
v 0.200380 -0.189526 -0.122928
v 0.174219 -0.095815 -0.754301
v 0.161085 -0.084600 -0.094536
v 0.179989 -0.096081 -0.014095
v 0.135504 -0.020592 -0.801040
v 0.189264 -0.037341 -0.733440
v 0.145979 0.027595 -0.081331
v 0.155317 0.025714 -0.011324
v 0.211329 -0.043961 0.065933
v 0.165850 0.022093 0.208461
v 0.173824 0.015766 0.309600
v 0.195081 0.018775 0.424246
v 0.184575 -0.001109 0.506666
v 0.165880 0.019229 0.621877
v 0.161243 0.083116 -0.803046
v 0.174714 0.040753 0.033774
v 0.157248 0.047586 0.105783
v 0.143855 0.045061 0.177146
v 0.181491 0.067052 0.736690
v 0.203255 0.122985 0.797153
v 0.173304 0.198070 -0.827882
v 0.146236 0.177948 0.825638
v 0.170859 0.288175 -0.814179
v 0.163989 0.270171 0.852217
v 0.168502 0.348780 -0.786397
v 0.162234 0.404269 -0.745877
v 0.153307 0.397850 0.856981
v 0.154009 0.477587 -0.714383
v 0.171662 0.483906 0.829048
v 0.127982 0.589118 -0.673662
v 0.155188 0.603385 -0.624115
v 0.167800 0.598145 0.773032
v 0.159325 0.536763 0.789531
v 0.205612 0.632848 -0.613383
v 0.155932 0.674739 -0.530755
v 0.182218 0.706918 0.628327
v 0.173617 0.661834 0.733765
v 0.162860 0.740592 -0.470910
v 0.185402 0.760226 -0.388215
v 0.159375 0.793174 -0.335082
v 0.195482 0.795464 0.237509
v 0.192223 0.779834 0.530161
v 0.158472 0.744312 0.597477
v 0.163738 0.838784 -0.277486
v 0.159613 0.850293 -0.190152
v 0.185026 0.881034 -0.099333
v 0.152215 0.900966 0.007816
v 0.166822 0.878076 0.092236
v 0.157794 0.856604 0.197547
v 0.159927 0.880182 0.302786
v 0.178382 0.851681 0.406678
v 0.128183 0.817997 0.505136
v 0.247311 -0.275874 -0.595129
v 0.265766 -0.300196 -0.510917
v 0.253755 -0.322688 -0.392628
v 0.254123 -0.305610 -0.326627
v 0.273673 -0.279857 -0.200153
v 0.303536 -0.260571 -0.108184
v 0.252050 -0.187838 -0.696480
v 0.287154 -0.209318 -0.608435
v 0.233871 -0.211859 -0.098956
v 0.280062 -0.188960 -0.002071
v 0.258143 -0.112790 -0.702598
v 0.315188 -0.067531 -0.650092
v 0.246973 -0.127496 0.040069
v 0.284110 -0.099001 0.106902
v 0.271842 -0.017081 -0.710873
v 0.236498 0.026063 0.043264
v 0.285075 0.001938 0.104579
v 0.264413 0.024773 0.209955
v 0.271114 0.001064 0.318225
v 0.280206 0.002113 0.414374
v 0.287731 -0.005123 0.525121
v 0.280175 -0.003207 0.630308
v 0.257801 0.028855 0.700650
v 0.236103 0.086827 -0.785394
v 0.292286 0.086493 -0.735546
v 0.242994 0.045705 0.121985
v 0.252368 0.053512 0.306697
v 0.307991 0.058970 0.373947
v 0.277208 0.060148 0.752571
v 0.262581 0.103777 0.799059
v 0.237457 0.198860 -0.777796
v 0.289695 0.173585 -0.749019
v 0.262306 0.199637 0.841986
v 0.247136 0.298255 -0.776267
v 0.293139 0.265340 -0.747949
v 0.272561 0.283160 0.861845
v 0.260388 0.376851 -0.730150
v 0.270003 0.384260 0.854022
v 0.261303 0.465326 -0.688080
v 0.285750 0.500154 0.847954
v 0.239914 0.531046 -0.677524
v 0.284731 0.579339 -0.636769
v 0.280134 0.583652 0.746486
v 0.255059 0.556922 0.796200
v 0.243224 0.654311 -0.584698
v 0.259974 0.669323 -0.501468
v 0.301497 0.695032 -0.434452
v 0.292136 0.692675 0.633919
v 0.250947 0.655716 0.694699
v 0.239337 0.736581 -0.422166
v 0.265954 0.787908 -0.327723
v 0.286151 0.793892 -0.231751
v 0.258171 0.781876 0.313911
v 0.309092 0.760069 0.398978
v 0.273464 0.793826 0.518978
v 0.252652 0.757919 0.572436
v 0.272009 0.836987 -0.200959
v 0.262247 0.866993 -0.111544
v 0.274557 0.876982 -0.005650
v 0.274985 0.875033 0.109529
v 0.279391 0.865779 0.208135
v 0.256589 0.841743 0.303814
v 0.238610 0.819752 0.396665
v 0.280134 0.827526 0.471136
v 0.360472 -0.259802 -0.501702
v 0.374037 -0.281366 -0.403034
v 0.350643 -0.312636 -0.305325
v 0.384042 -0.309131 -0.225098
v 0.380799 -0.295207 -0.072294
v 0.355858 -0.166023 -0.571058
v 0.376319 -0.191900 -0.529635
v 0.363247 -0.228888 0.016469
v 0.384201 -0.187512 0.104355
v 0.373109 -0.110157 -0.593625
v 0.356348 -0.124773 0.131849
v 0.359929 -0.060686 0.173945
v 0.384644 -0.014072 -0.618097
v 0.355552 0.017450 0.130747
v 0.349215 0.028101 0.198875
v 0.350457 0.012121 0.312706
v 0.370953 0.023590 0.415922
v 0.357538 0.011453 0.519479
v 0.380855 0.010880 0.639502
v 0.366590 0.030711 0.695802
v 0.366924 0.108692 -0.692786
v 0.384418 0.060750 -0.653151
v 0.370387 0.058085 0.451592
v 0.416137 0.087710 0.510432
v 0.377957 0.059045 0.734383
v 0.350392 0.116816 0.796802
v 0.377096 0.175315 -0.695753
v 0.397256 0.180856 -0.616342
v 0.366323 0.190301 0.833812
v 0.357580 0.257116 -0.721738
v 0.399112 0.260944 -0.661827
v 0.383340 0.274635 0.833110
v 0.346380 0.385764 -0.686901
v 0.377355 0.398084 -0.650861
v 0.381284 0.382154 0.828170
v 0.323562 0.478690 -0.680583
v 0.368663 0.485778 -0.610140
v 0.412025 0.471017 -0.559824
v 0.413128 0.489522 0.756081
v 0.359168 0.489171 0.795197
v 0.348386 0.562038 -0.586102
v 0.408515 0.587262 -0.529133
v 0.384418 0.559179 0.742992
v 0.352473 0.645636 -0.504510
v 0.379529 0.659126 -0.425024
v 0.349668 0.708544 0.428294
v 0.391936 0.695426 0.480882
v 0.392755 0.675901 0.622146
v 0.364684 0.625927 0.704929
v 0.355357 0.723316 -0.384554
v 0.374890 0.747989 -0.308177
v 0.392868 0.778681 -0.237468
v 0.378676 0.803554 -0.085065
v 0.410721 0.803956 0.010769
v 0.365621 0.801398 0.323113
v 0.371781 0.766244 0.404588
v 0.365637 0.748717 0.505713
v 0.362678 0.821106 -0.178493
v 0.375366 0.841467 0.011020
v 0.371705 0.836987 0.116015
v 0.363180 0.832189 0.217633
v 0.454651 -0.294705 -0.287065
v 0.448947 -0.315392 -0.186441
v 0.463929 -0.301876 -0.085182
v 0.456845 -0.277830 0.024811
v 0.494369 -0.259451 0.101488
v 0.430279 -0.187938 -0.487560
v 0.473474 -0.190897 -0.411451
v 0.475664 -0.248719 -0.354164
v 0.441788 -0.214041 0.130349
v 0.489455 -0.187153 0.161751
v 0.461301 -0.085665 -0.508833
v 0.459347 -0.103203 0.197707
v 0.445123 0.038183 -0.580586
v 0.472387 -0.009876 -0.510344
v 0.491049 0.036053 0.132393
v 0.457887 0.015467 0.185585
v 0.458271 0.003388 0.310643
v 0.457938 0.007081 0.408329
v 0.478447 0.023464 0.501877
v 0.424462 0.032566 0.623588
v 0.426067 0.106084 -0.593926
v 0.467842 0.103600 -0.512392
v 0.497679 0.131393 -0.416198
v 0.440526 0.090739 0.545694
v 0.478188 0.091178 0.628741
v 0.446828 0.086125 0.708941
v 0.422506 0.114810 0.783111
v 0.450263 0.198082 -0.593023
v 0.492957 0.179895 -0.520073
v 0.504012 0.176326 0.633200
v 0.482547 0.179740 0.749436
v 0.439908 0.205279 0.801315
v 0.454969 0.276156 -0.617847
v 0.505904 0.279900 -0.557868
v 0.508511 0.277092 0.754476
v 0.468894 0.273933 0.803723
v 0.440092 0.364610 -0.614930
v 0.493166 0.401260 -0.551500
v 0.513660 0.404436 0.630676
v 0.489087 0.394791 0.752922
v 0.441462 0.381101 0.798006
v 0.482534 0.488206 -0.520027
v 0.500613 0.484039 0.625828
v 0.472028 0.494337 0.725014
v 0.427496 0.570312 -0.505839
v 0.489354 0.595036 -0.441824
v 0.453127 0.591084 0.555075
v 0.467216 0.574139 0.600192
v 0.455654 0.563743 0.689283
v 0.422857 0.634753 -0.462235
v 0.469128 0.663204 -0.391508
v 0.475182 0.675133 -0.306492
v 0.457787 0.673405 0.534657
v 0.453548 0.623420 0.630107
v 0.451994 0.773967 -0.193621
v 0.502494 0.750346 -0.122877
v 0.475764 0.800545 -0.003373
v 0.452545 0.785100 0.104347
v 0.463728 0.782442 0.211064
v 0.468325 0.777577 0.332173
v 0.465032 0.743125 0.428726
v 0.455955 0.742172 0.482569
v 0.421503 0.827074 0.218135
v 0.541259 -0.298667 -0.188974
v 0.580759 -0.296544 -0.113834
v 0.559217 -0.297057 -0.012478
v 0.580169 -0.260714 0.089508
v 0.536444 -0.213013 -0.309381
v 0.590154 -0.196848 -0.243887
v 0.573053 -0.226428 0.140429
v 0.571356 -0.181536 0.165194
v 0.528847 -0.094010 -0.391274
v 0.569041 -0.117880 -0.328488
v 0.610213 -0.102435 -0.254819
v 0.567107 -0.101589 0.194582
v 0.526264 0.008796 -0.475875
v 0.551138 0.000772 -0.409177
v 0.582698 -0.012133 -0.338066
v 0.560698 0.017060 0.189099
v 0.577927 0.017247 0.309740
v 0.579505 0.002962 0.409887
v 0.570445 0.015043 0.499369
v 0.523456 0.066066 -0.484902
v 0.546937 0.086256 -0.408489
v 0.573005 0.108316 -0.312500
v 0.606973 0.106845 -0.183601
v 0.608386 0.079813 0.018081
v 0.565361 0.057314 0.087670
v 0.583341 0.043929 0.197788
v 0.608909 0.059647 0.547362
v 0.567035 0.081119 0.597711
v 0.539971 0.203273 -0.501602
v 0.569221 0.163956 -0.433209
v 0.600417 0.159543 -0.346859
v 0.574733 0.184099 0.639661
v 0.534288 0.214205 0.723585
v 0.545145 0.262674 -0.498091
v 0.597158 0.282090 -0.434625
v 0.556478 0.272336 0.649749
v 0.544970 0.286219 0.713956
v 0.543181 0.367326 -0.497297
v 0.596523 0.389917 -0.407211
v 0.568323 0.387452 0.646372
v 0.532282 0.348404 0.725089
v 0.528771 0.469212 -0.473518
v 0.582030 0.490525 -0.396765
v 0.603995 0.466153 -0.353111
v 0.555986 0.491060 0.626173
v 0.545158 0.554791 -0.408914
v 0.579505 0.573756 -0.321617
v 0.605449 0.583501 0.529559
v 0.555049 0.563007 0.604999
v 0.556052 0.637712 -0.284206
v 0.587120 0.683899 -0.223125
v 0.591106 0.683398 -0.121423
v 0.595795 0.705388 0.311587
v 0.588474 0.657345 0.429437
v 0.554347 0.666748 0.524469
v 0.523757 0.632948 0.581664
v 0.556905 0.721160 -0.086469
v 0.569392 0.745281 -0.007452
v 0.569693 0.747137 0.092136
v 0.548831 0.765725 0.184585
v 0.542061 0.741420 0.313518
v 0.560716 0.731591 0.400426
v 0.628668 -0.251978 -0.163749
v 0.634084 -0.277655 -0.078696
v 0.634864 -0.269129 0.012073
v 0.623854 -0.193405 -0.165654
v 0.656325 -0.213690 -0.090883
v 0.670592 -0.203702 0.013327
v 0.654603 -0.196271 0.111084
v 0.633382 -0.061312 -0.265350
v 0.634335 -0.130117 -0.169767
v 0.686189 -0.102284 -0.096198
v 0.694664 -0.106104 0.009574
v 0.675565 -0.099279 0.118035
v 0.645961 -0.072454 0.171722
v 0.615278 -0.007954 -0.257828
v 0.646053 -0.019104 -0.171121
v 0.681036 -0.025769 -0.087761
v 0.691279 0.000270 -0.004677
v 0.700541 0.019252 0.096965
v 0.644046 -0.025966 0.182522
v 0.646044 0.028955 0.349750
v 0.654695 0.025696 0.426904
v 0.617134 0.033569 0.487083
v 0.621915 0.059613 -0.259600
v 0.645157 0.057982 -0.152255
v 0.644132 0.098115 -0.102077
v 0.674110 0.093747 0.003671
v 0.644479 0.076958 0.118029
v 0.683988 0.075661 0.216145
v 0.685787 0.061577 0.319686
v 0.673200 0.041493 0.423695
v 0.668503 0.071682 0.512609
v 0.656718 0.125776 0.594468
v 0.656474 0.207987 -0.308888
v 0.685606 0.197393 -0.190428
v 0.699829 0.166363 -0.083619
v 0.708605 0.146404 0.546158
v 0.641606 0.179026 0.614586
v 0.634886 0.263828 -0.394333
v 0.683882 0.303771 -0.312591
v 0.703189 0.299960 -0.250256
v 0.669238 0.273147 0.621448
v 0.641506 0.342235 -0.377884
v 0.672210 0.389676 -0.311939
v 0.697623 0.377490 -0.251158
v 0.667308 0.381301 0.602475
v 0.649664 0.487349 -0.307776
v 0.680033 0.489773 -0.222912
v 0.701986 0.499953 0.539438
v 0.657002 0.499602 0.588885
v 0.638948 0.546291 -0.285836
v 0.644649 0.579255 -0.202263
v 0.678955 0.575653 -0.111594
v 0.688282 0.610268 0.117210
v 0.703691 0.591726 0.215126
v 0.705797 0.599950 0.323899
v 0.689181 0.595905 0.408316
v 0.675942 0.566284 0.508179
v 0.634335 0.647943 -0.154070
v 0.649129 0.661433 -0.073982
v 0.670342 0.672378 0.002808
v 0.673501 0.667283 0.085190
v 0.646240 0.669617 0.209579
v 0.663070 0.649196 0.317179
v 0.643211 0.639969 0.478658
v 0.715225 -0.057367 0.045907
v 0.714523 -0.011364 0.058812
v 0.727983 0.128912 0.101719
v 0.723148 0.116415 0.194715
v 0.729567 0.102273 0.308787
v 0.725505 0.102373 0.417877
v 0.719036 0.106084 0.483272
v 0.737346 0.214094 -0.124042
v 0.757158 0.198316 -0.013039
v 0.775052 0.188646 0.101906
v 0.760827 0.183046 0.223768
v 0.777159 0.177145 0.307550
v 0.763468 0.188910 0.416413
v 0.727737 0.184718 0.521259
v 0.739096 0.295848 -0.178417
v 0.779666 0.288476 -0.099759
v 0.789896 0.293465 -0.013829
v 0.791852 0.292738 0.089001
v 0.788994 0.269269 0.192141
v 0.788994 0.277192 0.328111
v 0.782424 0.294845 0.408650
v 0.749777 0.279248 0.497514
v 0.741641 0.384059 -0.181414
v 0.796516 0.377991 -0.104172
v 0.785283 0.382104 -0.011535
v 0.806571 0.376738 0.089603
v 0.786048 0.394641 0.204569
v 0.784079 0.392685 0.325553
v 0.761312 0.385514 0.434076
v 0.718309 0.381878 0.534448
v 0.732025 0.474327 -0.178568
v 0.774350 0.466604 -0.098505
v 0.754575 0.487182 -0.016579
v 0.779315 0.478841 0.118790
v 0.755444 0.500054 0.222096
v 0.756748 0.478991 0.305945
v 0.733780 0.481850 0.408750
v 0.731373 0.497847 0.497414
v 0.718785 0.531848 -0.082157
v 0.728289 0.564219 0.001203
v 0.747253 0.538986 0.116600
v 0.728665 0.570864 0.195016
v 0.736739 0.539621 0.320488
v 0.722246 0.624423 0.040858
f 589 661 664
f 664 590 589
f 590 511 589
f 590 664 595
f 595 522 590
f 522 521 511
f 511 590 522
f 521 434 511
f 511 434 510
f 595 664 596
f 665 596 664
f 661 722 662
f 665 664 661
f 661 662 665
f 722 665 662
f 665 722 666
f 726 666 722
f 722 723 726
f 722 661 721
f 721 784 722
f 784 785 722
f 786 722 785
f 785 844 786
f 722 786 723
f 782 783 719
f 850 843 783
f 784 783 843
f 843 785 784
f 785 843 844
f 720 719 783
f 783 721 720
f 721 783 784
f 910 843 850
f 783 849 850
f 850 849 910
f 849 783 782
f 782 848 849
f 782 788 848
f 788 853 848
f 853 849 848
f 915 910 849
f 849 914 915
f 849 853 914
f 970 908 969
f 907 969 908
f 908 970 909
f 906 907 908
f 908 845 906
f 844 906 845
f 906 844 843
f 974 973 978
f 978 979 974
f 973 974 970
f 909 970 974
f 978 984 1032
f 978 1032 979
f 985 986 980
f 980 979 985
f 1033 985 979
f 979 1032 1033
f 984 1033 1032
f 984 985 1033
f 985 984 993
f 994 986 985
f 994 985 993
f 991 993 992
f 928 992 991
f 982 991 983
f 991 982 990
f 990 928 991
f 928 990 927
f 983 992 984
f 992 983 991
f 993 984 992
f 921 986 931
f 994 931 986
f 980 986 921
f 921 917 980
f 917 986 980
f 980 917 979
f 854 793 792
f 858 795 793
f 793 854 858
f 921 858 854
f 854 917 921
f 983 984 978
f 978 977 983
f 977 976 982
f 982 983 977
f 982 975 981
f 975 982 976
f 976 916 975
f 920 975 916
f 916 915 920
f 920 981 975
f 982 981 990
f 927 990 981
f 981 920 927
f 855 864 856
f 864 855 863
f 918 856 864
f 864 925 918
f 919 918 925
f 925 926 919
f 926 927 920
f 920 919 926
f 914 853 856
f 914 856 918
f 918 919 914
f 920 914 919
f 914 920 915
f 794 853 791
f 853 794 856
f 791 853 788
f 788 787 791
f 787 788 782
f 782 725 787
f 791 787 725
f 791 729 794
f 729 791 725
f 725 728 729
f 855 856 794
f 863 855 794
f 794 803 863
f 906 843 910
f 910 911 906
f 911 971 968
f 907 906 911
f 911 968 907
f 911 910 915
f 915 916 911
f 976 911 916
f 911 976 971
f 972 971 976
f 976 977 972
f 973 972 977
f 977 978 973
f 969 907 968
f 968 972 969
f 972 968 971
f 972 973 970
f 970 969 972
f 844 845 786
f 845 908 846
f 846 786 845
f 909 846 908
f 846 909 847
f 852 913 917
f 917 854 852
f 851 852 854
f 792 851 854
f 851 792 790
f 786 789 723
f 789 786 846
f 789 727 723
f 847 851 846
f 789 846 851
f 851 790 789
f 726 723 727
f 665 666 668
f 668 606 665
f 605 665 606
f 665 605 596
f 666 726 727
f 727 789 790
f 790 731 727
f 731 790 792
f 727 669 668
f 668 666 727
f 727 730 669
f 727 731 730
f 669 730 731
f 792 793 731
f 913 852 851
f 851 912 913
f 912 851 847
f 847 909 912
f 974 912 909
f 974 913 912
f 979 917 913
f 913 974 979
f 587 657 663
f 658 587 657
f 657 663 724
f 725 724 728
f 658 657 724
f 724 725 658
f 718 658 725
f 719 718 725
f 725 782 719
f 594 587 509
f 509 520 519
f 509 519 594
f 432 363 441
f 520 509 432
f 432 441 520
f 519 520 441
f 441 442 519
f 442 441 363
f 451 442 363
f 363 371 451
f 531 519 442
f 442 451 531
f 602 594 519
f 519 531 602
f 433 504 510
f 504 433 427
f 270 269 347
f 269 351 347
f 503 427 347
f 427 347 351
f 351 346 427
f 502 427 346
f 346 426 502
f 427 502 503
f 504 503 585
f 503 504 427
f 433 510 434
f 434 353 433
f 352 433 353
f 433 352 427
f 353 278 270
f 206 270 278
f 278 217 206
f 347 427 352
f 352 270 347
f 270 352 353
f 270 206 269
f 434 443 353
f 434 521 522
f 522 532 443
f 443 434 522
f 532 452 443
f 372 443 452
f 279 365 443
f 443 372 279
f 278 353 443
f 443 365 278
f 365 279 278
f 278 218 217
f 218 278 279
f 224 218 279
f 279 287 224
f 218 224 217
f 452 373 372
f 288 372 373
f 287 279 372
f 372 288 287
f 224 287 288
f 288 295 224
f 295 288 373
f 373 378 295
f 168 217 224
f 216 269 206
f 206 217 216
f 217 161 216
f 167 216 161
f 167 161 217
f 217 168 167
f 223 216 167
f 378 458 379
f 384 379 458
f 458 378 373
f 373 452 458
f 378 296 295
f 295 229 224
f 168 224 229
f 229 172 168
f 458 452 541
f 614 542 541
f 452 532 541
f 532 522 595
f 595 604 532
f 605 532 604
f 532 605 614
f 614 541 532
f 614 605 606
f 615 614 606
f 596 605 604
f 604 595 596
f 660 720 721
f 660 721 661
f 661 589 660
f 510 589 511
f 589 510 504
f 656 659 660
f 660 588 656
f 660 589 588
f 585 588 589
f 589 504 585
f 585 656 588
f 660 719 720
f 719 660 659
f 585 658 656
f 659 656 658
f 659 658 719
f 718 719 658
f 587 584 509
f 584 503 509
f 584 587 658
f 503 584 658
f 658 585 503
f 432 509 503
f 503 502 432
f 502 503 584
f 426 432 502
f 216 223 286
f 286 277 216
f 286 276 277
f 286 363 276
f 363 286 371
f 277 276 363
f 363 364 277
f 351 277 364
f 351 364 363
f 363 432 351
f 346 351 432
f 432 426 346
f 269 216 277
f 277 351 269
f 371 457 451
f 457 371 377
f 531 451 457
f 457 540 531
f 457 377 383
f 383 463 457
f 463 554 549
f 540 457 463
f 463 549 540
f 622 549 554
f 554 629 622
f 613 540 549
f 549 622 613
f 602 531 540
f 540 613 602
f 631 629 554
f 554 557 631
f 463 466 554
f 466 463 383
f 383 387 466
f 468 466 387
f 387 390 468
f 557 554 466
f 466 468 557
f 471 468 390
f 559 557 468
f 468 471 559
f 633 631 557
f 557 559 633
f 748 752 749
f 748 680 686
f 749 741 748
f 741 749 742
f 680 748 741
f 613 680 670
f 670 602 613
f 680 613 622
f 622 686 680
f 686 622 629
f 754 690 691
f 752 751 754
f 752 748 751
f 688 751 748
f 748 686 688
f 690 754 751
f 751 688 690
f 631 688 686
f 686 629 631
f 631 690 688
f 690 631 633
f 808 749 811
f 808 742 749
f 811 749 752
f 811 879 812
f 875 812 879
f 812 808 811
f 809 808 812
f 812 875 809
f 818 815 814
f 754 814 815
f 818 879 815
f 879 818 819
f 815 879 814
f 811 814 879
f 752 754 814
f 814 811 752
f 732 728 724
f 728 724 663
f 671 728 663
f 663 667 671
f 728 671 732
f 587 594 663
f 603 663 594
f 663 603 667
f 671 667 603
f 594 602 603
f 670 603 602
f 680 671 603
f 603 670 680
f 742 732 671
f 732 671 667
f 741 732 671
f 671 680 741
f 732 741 742
f 307 308 311
f 314 395 311
f 311 395 307
f 395 314 315
f 315 398 395
f 398 315 400
f 397 398 400
f 400 478 397
f 398 397 395
f 397 477 395
f 477 397 478
f 474 395 477
f 392 307 395
f 395 394 392
f 471 394 395
f 395 474 471
f 471 392 394
f 179 180 235
f 237 235 180
f 180 184 237
f 180 185 184
f 184 187 239
f 187 184 185
f 187 240 239
f 239 237 184
f 301 235 237
f 237 304 301
f 298 235 301
f 304 237 239
f 304 239 308
f 308 307 304
f 390 304 307
f 307 392 390
f 392 471 390
f 383 298 301
f 301 387 383
f 387 301 304
f 304 390 387
f 250 317 320
f 320 316 250
f 246 250 316
f 316 249 246
f 320 315 316
f 315 320 400
f 249 316 315
f 245 249 315
f 315 244 245
f 244 315 314
f 314 311 244
f 239 244 311
f 311 308 239
f 239 245 244
f 245 246 249
f 245 239 240
f 563 561 477
f 474 477 561
f 561 563 635
f 559 561 635
f 635 633 559
f 471 474 561
f 561 559 471
f 699 759 696
f 693 695 696
f 695 638 696
f 700 699 696
f 695 693 635
f 635 563 638
f 638 695 635
f 564 638 563
f 566 638 564
f 696 640 700
f 640 696 638
f 641 640 638
f 638 566 641
f 641 700 640
f 571 484 485
f 484 571 570
f 570 481 484
f 482 485 484
f 644 567 570
f 567 644 641
f 566 567 641
f 481 570 567
f 567 566 481
f 566 564 481
f 477 481 564
f 564 563 477
f 481 477 478
f 401 482 484
f 484 400 401
f 400 484 481
f 481 478 400
f 286 223 227
f 227 294 286
f 298 231 235
f 294 227 231
f 231 298 294
f 377 294 298
f 298 383 377
f 371 286 294
f 294 377 371
f 176 229 172
f 176 172 115
f 115 114 176
f 114 118 176
f 181 176 118
f 118 121 181
f 129 187 185
f 185 125 129
f 125 185 122
f 122 69 125
f 69 122 121
f 75 125 69
f 80 129 125
f 125 75 80
f 129 80 130
f 246 241 240
f 246 240 187
f 246 250 317
f 250 253 317
f 187 240 241
f 185 181 122
f 121 122 181
f 180 181 185
f 181 180 175
f 175 176 181
f 176 175 171
f 171 172 176
f 172 171 168
f 240 246 245
f 407 403 406
f 322 406 403
f 321 322 403
f 321 317 253
f 494 487 488
f 487 488 578
f 488 493 487
f 649 648 577
f 577 578 649
f 650 649 578
f 578 579 650
f 710 649 650
f 571 485 572
f 571 572 576
f 645 571 576
f 571 645 570
f 645 576 648
f 648 646 645
f 646 705 645
f 703 645 705
f 705 704 703
f 644 570 645
f 641 644 645
f 645 703 641
f 768 704 705
f 646 709 705
f 705 709 768
f 709 646 648
f 648 649 709
f 649 710 709
f 709 774 768
f 709 710 774
f 769 774 710
f 769 768 774
f 572 485 486
f 486 492 572
f 576 572 492
f 486 487 492
f 576 492 487
f 487 493 576
f 577 576 493
f 493 488 577
f 578 577 488
f 576 577 648
f 650 712 711
f 650 651 712
f 651 650 579
f 651 652 712
f 713 712 652
f 776 711 712
f 488 494 578
f 578 494 579
f 494 414 495
f 496 495 414
f 496 579 495
f 495 579 494
f 331 408 415
f 336 331 415
f 331 336 263
f 496 414 415
f 415 335 336
f 335 415 414
f 329 336 335
f 262 263 336
f 336 330 262
f 336 329 330
f 335 261 329
f 335 334 328
f 327 260 328
f 261 335 328
f 328 260 261
f 261 260 204
f 205 261 204
f 204 199 205
f 329 261 330
f 261 205 262
f 262 330 261
f 488 413 494
f 488 412 413
f 487 412 488
f 412 487 407
f 407 327 412
f 412 334 413
f 334 412 327
f 328 334 327
f 414 494 413
f 413 334 335
f 413 335 414
f 580 652 651
f 651 579 580
f 580 579 496
f 581 496 497
f 496 581 580
f 652 580 581
f 487 486 406
f 406 403 487
f 407 487 403
f 196 254 253
f 196 258 254
f 258 196 259
f 259 327 258
f 326 258 327
f 327 407 326
f 406 326 407
f 326 406 322
f 254 321 253
f 321 254 258
f 258 326 321
f 326 322 321
f 260 327 259
f 196 197 259
f 204 259 197
f 204 260 259
f 148 196 193
f 193 140 148
f 196 148 197
f 198 197 148
f 140 141 148
f 149 198 148
f 148 141 149
f 198 204 197
f 199 204 198
f 133 130 80
f 80 86 133
f 86 80 81
f 138 133 86
f 86 134 138
f 81 82 86
f 82 81 35
f 82 87 86
f 140 86 87
f 87 93 140
f 87 88 93
f 141 93 88
f 93 141 140
f 139 138 134
f 139 134 86
f 86 140 139
f 193 139 140
f 139 193 196
f 29 35 81
f 81 28 29
f 81 77 28
f 77 76 28
f 77 81 80
f 80 76 77
f 76 80 130
f 80 75 76
f 70 76 75
f 75 69 70
f 65 70 69
f 23 29 28
f 28 71 23
f 71 28 76
f 76 70 71
f 17 71 70
f 70 65 17
f 17 23 71
f 37 41 36
f 41 37 89
f 88 41 89
f 89 94 88
f 94 141 88
f 41 88 36
f 82 36 88
f 88 87 82
f 36 82 35
f 38 32 39
f 40 83 39
f 37 31 38
f 32 38 31
f 31 25 32
f 26 32 25
f 33 40 39
f 33 39 32
f 27 33 32
f 32 26 27
f 36 35 29
f 29 30 36
f 30 29 23
f 23 24 30
f 31 30 24
f 24 25 31
f 37 36 30
f 30 31 37
f 91 96 95
f 95 90 91
f 89 37 90
f 38 90 37
f 90 38 91
f 39 91 38
f 91 39 83
f 61 55 56
f 56 9 61
f 57 4 56
f 9 56 4
f 4 10 9
f 16 9 10
f 10 17 16
f 65 16 17
f 64 61 9
f 9 65 64
f 9 16 65
f 69 64 65
f 49 4 57
f 57 48 49
f 48 57 56
f 56 47 48
f 47 56 55
f 55 109 47
f 101 47 109
f 47 101 48
f 102 48 101
f 102 101 109
f 43 49 48
f 48 42 43
f 48 102 42
f 103 42 102
f 42 103 43
f 109 55 112
f 112 108 109
f 172 168 112
f 108 112 168
f 168 162 108
f 108 163 109
f 163 108 162
f 152 109 163
f 101 109 108
f 109 152 102
f 172 112 115
f 61 114 115
f 61 115 112
f 55 61 112
f 69 121 118
f 118 64 69
f 64 118 114
f 114 61 64
f 187 189 246
f 189 187 129
f 189 129 130
f 130 133 189
f 191 189 133
f 133 138 191
f 192 191 138
f 138 139 192
f 253 192 139
f 139 196 253
f 250 246 189
f 250 189 191
f 191 192 250
f 253 250 192
f 95 143 90
f 142 90 143
f 90 142 89
f 143 95 96
f 96 144 143
f 144 150 143
f 143 150 142
f 198 150 199
f 149 142 150
f 150 198 149
f 94 89 142
f 142 149 141
f 141 94 142
f 296 288 295
f 288 296 289
f 225 295 288
f 289 219 225
f 225 288 289
f 225 219 224
f 162 224 219
f 219 163 162
f 224 162 168
f 224 168 172
f 289 379 380
f 380 290 289
f 296 378 379
f 379 289 296
f 379 385 378
f 625 546 550
f 550 624 625
f 619 625 618
f 461 544 545
f 544 545 550
f 545 550 546
f 546 625 618
f 619 678 620
f 619 677 678
f 677 737 678
f 738 678 737
f 679 620 678
f 678 738 679
f 739 679 738
f 736 737 676
f 799 738 737
f 737 677 676
f 619 676 677
f 676 618 683
f 683 675 676
f 625 676 619
f 618 676 625
f 618 624 683
f 624 618 625
f 617 550 544
f 550 617 624
f 543 616 617
f 543 617 544
f 623 544 617
f 623 617 616
f 624 617 623
f 616 673 617
f 682 617 673
f 617 682 623
f 623 682 624
f 683 624 682
f 375 455 461
f 461 381 375
f 544 461 455
f 455 534 544
f 291 380 381
f 280 281 221
f 281 280 291
f 220 221 207
f 207 154 220
f 219 220 154
f 154 164 219
f 164 163 219
f 221 220 280
f 289 280 220
f 220 219 289
f 290 291 280
f 280 289 290
f 221 281 282
f 282 209 221
f 210 282 271
f 209 282 210
f 210 156 209
f 155 209 156
f 208 221 209
f 209 155 208
f 210 157 156
f 211 157 210
f 210 271 211
f 157 211 158
f 159 107 106
f 106 158 159
f 158 106 105
f 105 157 158
f 105 100 157
f 211 159 158
f 103 155 156
f 156 98 103
f 155 103 154
f 157 99 156
f 98 156 99
f 98 43 103
f 102 154 103
f 44 99 45
f 105 45 99
f 105 46 45
f 44 104 99
f 104 44 43
f 43 98 104
f 99 104 98
f 99 157 100
f 105 100 99
f 271 272 211
f 272 271 358
f 358 359 272
f 273 359 360
f 273 272 359
f 272 273 212
f 272 212 211
f 437 438 359
f 438 437 516
f 516 517 438
f 517 516 529
f 439 438 517
f 529 518 517
f 439 517 518
f 360 359 438
f 360 438 439
f 449 448 527
f 516 527 528
f 528 529 516
f 437 448 449
f 437 449 527
f 527 516 437
f 368 357 283
f 358 369 448
f 357 368 369
f 369 358 357
f 448 437 358
f 437 359 358
f 271 283 357
f 357 358 271
f 271 282 283
f 153 102 152
f 154 102 153
f 153 152 163
f 163 164 153
f 154 153 164
f 208 154 207
f 207 221 208
f 154 208 155
f 156 155 154
f 367 375 368
f 448 369 368
f 282 367 368
f 368 283 282
f 455 448 368
f 455 368 375
f 527 448 526
f 527 536 528
f 526 448 455
f 455 535 526
f 526 536 527
f 536 526 535
f 367 282 292
f 292 375 367
f 455 461 535
f 292 282 281
f 292 281 291
f 291 375 292
f 290 380 291
f 291 381 375
f 460 380 379
f 615 672 614
f 542 614 605
f 605 533 542
f 605 614 615
f 615 606 605
f 606 615 672
f 672 668 606
f 668 669 606
f 542 533 453
f 453 459 542
f 460 459 453
f 453 454 460
f 380 460 454
f 454 374 380
f 460 379 459
f 385 384 379
f 542 459 458
f 458 541 542
f 379 458 459
f 229 295 225
f 225 224 229
f 172 229 224
f 796 858 859
f 922 860 859
f 861 860 923
f 923 924 861
f 923 860 922
f 988 989 924
f 924 923 988
f 923 987 988
f 997 988 923
f 987 923 922
f 922 931 995
f 996 987 922
f 922 995 996
f 996 997 988
f 988 987 996
f 1037 1044 1045
f 1045 1038 1037
f 1003 1045 1004
f 1004 999 1003
f 998 1003 999
f 1038 1045 1003
f 1003 998 1038
f 998 989 988
f 998 988 997
f 1036 1044 1037
f 1038 998 1037
f 996 1037 998
f 998 997 996
f 996 1036 1037
f 1050 1049 1057
f 1057 1058 1050
f 1058 1057 1065
f 1065 1066 1058
f 1059 1058 1066
f 1066 1067 1059
f 1060 1059 1067
f 1067 1068 1060
f 1051 1050 1058
f 1058 1059 1051
f 1052 1051 1059
f 1059 1060 1052
f 1051 1052 1044
f 1047 1046 1054
f 1054 1055 1047
f 1048 1047 1055
f 1055 1056 1048
f 1054 1063 1055
f 1063 1054 1062
f 1063 1064 1056
f 1056 1055 1063
f 1057 1056 1064
f 1064 1065 1057
f 1049 1048 1056
f 1056 1057 1049
f 1041 1034 1040
f 1002 1039 1040
f 1048 1040 1039
f 1039 1047 1048
f 1039 1046 1047
f 1049 1041 1040
f 1040 1048 1049
f 1002 993 992
f 1040 993 1002
f 993 1040 1034
f 995 931 994
f 994 1034 995
f 1034 994 993
f 1035 995 1034
f 995 1035 1036
f 995 1036 996
f 921 930 931
f 931 930 994
f 930 929 994
f 993 994 929
f 857 930 921
f 921 931 922
f 859 921 922
f 921 858 857
f 858 921 931
f 921 859 858
f 1035 1042 1036
f 1043 1036 1042
f 1036 1043 1044
f 1042 1035 1034
f 1034 1041 1042
f 1041 1050 1042
f 1041 1049 1050
f 1051 1043 1042
f 1042 1050 1051
f 1043 1051 1044
f 1007 1001 1000
f 1000 1006 1007
f 1046 1039 1001
f 1001 1007 1046
f 926 935 936
f 936 935 1000
f 927 936 1000
f 1000 928 927
f 936 927 926
f 926 927 865
f 875 879 943
f 943 876 875
f 870 875 876
f 943 939 876
f 943 940 939
f 871 876 939
f 939 934 871
f 876 871 870
f 809 875 870
f 934 935 871
f 935 926 871
f 864 871 926
f 926 865 864
f 863 809 870
f 870 864 863
f 864 870 871
f 1006 1005 1009
f 1005 1006 1000
f 940 1005 1000
f 940 1009 1005
f 1000 935 1005
f 940 1005 935
f 939 940 935
f 935 934 939
f 992 993 929
f 1001 992 928
f 928 1000 1001
f 1039 1002 1001
f 992 1001 1002
f 1007 1006 1010
f 1010 1011 1007
f 1014 1010 1013
f 1010 1014 1011
f 1054 1011 1014
f 1014 1062 1054
f 1046 1007 1011
f 1011 1054 1046
f 1062 1014 1019
f 1014 1018 1019
f 1013 1017 1014
f 1018 1014 1017
f 1017 952 1018
f 956 1018 952
f 952 955 956
f 1018 956 1025
f 1025 1019 1018
f 1019 1025 1026
f 1072 1065 1064
f 1064 1071 1072
f 1063 1070 1064
f 1070 1063 1062
f 1062 1019 1070
f 1071 1064 1070
f 1070 1019 1071
f 1019 1026 1027
f 1027 1071 1019
f 1020 1072 1071
f 1071 1027 1075
f 1071 1075 1020
f 1074 1068 1067
f 1074 1067 1066
f 1021 1074 1066
f 1066 1073 1021
f 1074 1021 1022
f 1065 1072 1066
f 1073 1066 1072
f 1021 1073 1072
f 1072 1020 1021
f 1030 1022 1021
f 1021 1029 1030
f 1029 1021 1073
f 1021 1020 1029
f 1008 1004 1045
f 1045 1053 1008
f 1061 1008 1053
f 1008 1061 1012
f 1053 1045 1044
f 1044 1052 1053
f 1060 1053 1052
f 1053 1060 1061
f 1069 1061 1060
f 1060 1068 1069
f 1061 1069 1015
f 1016 1012 1061
f 1061 1015 1016
f 1074 1023 1068
f 1023 1074 1022
f 1069 1068 1023
f 1023 1024 1069
f 1023 1022 1030
f 1029 958 1030
f 959 1030 958
f 1030 959 1023
f 1031 1023 959
f 958 967 959
f 953 1031 959
f 1015 1069 1024
f 1023 1031 1024
f 1031 953 1024
f 1016 1015 1024
f 964 1028 1027
f 964 1027 963
f 964 965 1029
f 1029 1020 1028
f 1028 964 1029
f 1075 1028 1020
f 1028 1075 1027
f 1026 963 1027
f 834 898 897
f 898 834 899
f 899 963 898
f 963 899 964
f 962 898 963
f 957 962 963
f 963 1026 957
f 1025 957 1026
f 956 897 898
f 956 898 962
f 962 957 956
f 957 1025 956
f 840 834 776
f 899 834 840
f 840 835 899
f 776 777 841
f 776 841 840
f 841 842 905
f 841 905 900
f 835 900 899
f 900 835 840
f 840 841 900
f 964 899 900
f 900 965 964
f 900 901 965
f 901 900 905
f 901 905 842
f 902 901 905
f 901 902 965
f 966 965 902
f 967 966 902
f 966 967 958
f 965 958 1029
f 965 966 958
f 770 836 779
f 836 770 837
f 778 779 836
f 903 837 828
f 828 904 903
f 836 837 903
f 902 836 903
f 903 967 902
f 842 778 836
f 905 836 902
f 836 905 842
f 841 778 842
f 778 841 777
f 776 712 777
f 713 777 712
f 777 713 778
f 714 778 713
f 713 652 714
f 770 779 778
f 778 714 770
f 710 650 711
f 711 775 710
f 775 711 776
f 776 834 775
f 839 775 834
f 839 774 775
f 769 710 775
f 775 774 769
f 774 839 769
f 894 893 832
f 833 832 769
f 769 839 833
f 832 833 894
f 897 894 833
f 897 833 839
f 839 834 897
f 956 894 897
f 894 956 955
f 893 951 888
f 951 893 894
f 894 952 951
f 952 894 955
f 948 951 952
f 1017 1013 952
f 949 952 1013
f 952 949 948
f 951 948 947
f 826 825 764
f 764 831 826
f 887 892 825
f 825 826 887
f 704 768 767
f 831 764 767
f 767 768 831
f 768 769 832
f 832 831 768
f 892 887 826
f 826 893 892
f 893 826 831
f 831 832 893
f 892 893 888
f 951 884 888
f 887 888 884
f 887 892 888
f 884 951 947
f 884 819 887
f 887 823 892
f 823 887 884
f 825 892 823
f 1010 1006 1009
f 940 944 1009
f 1009 944 1010
f 944 940 943
f 948 944 943
f 943 947 948
f 944 948 949
f 1013 1010 944
f 944 949 1013
f 867 861 924
f 924 933 867
f 924 932 933
f 932 924 989
f 989 998 932
f 999 932 998
f 932 999 933
f 1004 933 999
f 937 1004 999
f 933 1004 937
f 736 744 735
f 744 736 798
f 798 737 744
f 737 745 744
f 675 735 744
f 798 804 737
f 804 798 861
f 861 866 804
f 745 737 804
f 866 805 804
f 859 797 796
f 735 796 797
f 797 859 860
f 798 860 861
f 798 797 860
f 797 736 735
f 797 798 736
f 683 735 675
f 735 683 743
f 682 743 683
f 733 743 681
f 682 681 743
f 734 735 743
f 733 681 673
f 734 743 733
f 796 735 734
f 734 795 796
f 796 795 858
f 682 673 681
f 866 799 804
f 737 804 799
f 737 736 744
f 736 676 675
f 675 744 736
f 872 867 866
f 867 937 872
f 941 937 872
f 885 950 945
f 942 941 945
f 881 945 941
f 945 881 885
f 829 765 830
f 829 830 824
f 820 886 824
f 891 824 886
f 824 891 829
f 896 829 891
f 891 890 896
f 890 891 886
f 886 950 890
f 895 829 896
f 896 890 895
f 829 895 838
f 890 889 895
f 828 838 895
f 950 885 890
f 938 941 942
f 945 946 942
f 877 942 946
f 946 882 877
f 873 938 942
f 942 877 873
f 945 882 946
f 882 945 950
f 950 886 882
f 883 882 886
f 886 820 883
f 877 878 873
f 878 877 882
f 882 883 878
f 874 873 878
f 937 867 933
f 867 866 861
f 1012 945 1008
f 937 1004 1008
f 945 1012 1016
f 1016 950 945
f 1008 941 937
f 941 1008 945
f 591 596 592
f 595 596 522
f 513 522 596
f 522 513 512
f 604 595 522
f 532 604 522
f 596 595 605
f 604 605 595
f 532 533 605
f 522 532 444
f 452 444 532
f 533 453 452
f 452 532 533
f 533 532 522
f 523 533 522
f 513 596 591
f 435 512 505
f 505 428 435
f 428 505 423
f 429 428 423
f 423 343 429
f 340 343 423
f 340 423 420
f 420 338 340
f 344 429 343
f 348 435 428
f 348 428 429
f 429 344 348
f 421 423 424
f 423 421 420
f 500 424 423
f 418 338 420
f 424 500 501
f 505 506 501
f 501 500 505
f 505 500 423
f 512 506 505
f 506 507 501
f 421 424 501
f 506 512 513
f 513 591 592
f 592 506 513
f 597 592 596
f 596 665 597
f 606 665 596
f 665 606 597
f 605 606 596
f 606 669 598
f 598 597 606
f 592 597 598
f 598 593 592
f 593 508 586
f 586 592 593
f 598 669 607
f 506 586 507
f 506 592 586
f 507 586 508
f 348 345 349
f 425 349 345
f 354 348 349
f 348 344 345
f 354 349 355
f 355 349 350
f 350 349 430
f 354 355 366
f 374 453 445
f 445 446 374
f 446 445 366
f 446 366 374
f 354 435 348
f 354 366 445
f 445 435 354
f 523 522 512
f 453 374 454
f 445 453 533
f 533 523 445
f 445 523 435
f 512 435 523
f 551 464 552
f 299 386 300
f 233 232 177
f 299 233 232
f 119 120 177
f 120 178 177
f 233 177 178
f 116 113 169
f 169 173 116
f 173 117 116
f 173 169 226
f 226 230 173
f 120 117 173
f 173 178 120
f 178 173 230
f 230 233 178
f 120 116 117
f 68 116 120
f 120 119 68
f 222 226 169
f 169 166 222
f 166 169 113
f 113 111 166
f 165 166 111
f 111 107 160
f 160 165 111
f 215 222 166
f 214 166 165
f 165 160 214
f 214 215 166
f 293 297 226
f 230 226 297
f 297 293 376
f 376 382 297
f 382 376 456
f 456 462 382
f 539 456 450
f 450 530 539
f 530 450 440
f 440 518 530
f 538 539 530
f 285 222 284
f 293 226 222
f 222 285 293
f 284 222 215
f 215 275 284
f 275 215 214
f 275 361 285
f 285 284 275
f 370 285 361
f 361 362 370
f 450 370 362
f 362 440 450
f 376 293 285
f 285 370 376
f 456 376 370
f 370 450 456
f 440 362 361
f 214 274 275
f 361 275 274
f 360 361 274
f 361 360 439
f 440 439 518
f 439 440 361
f 530 529 600
f 611 601 600
f 611 612 601
f 530 600 601
f 530 601 612
f 612 538 530
f 518 529 530
f 539 462 456
f 539 538 612
f 612 621 539
f 382 300 297
f 382 462 465
f 465 386 382
f 300 382 386
f 230 297 300
f 300 233 230
f 300 299 233
f 465 464 386
f 548 547 552
f 552 464 548
f 464 465 548
f 548 539 621
f 548 465 462
f 462 539 548
f 60 59 54
f 60 54 110
f 107 111 110
f 113 110 111
f 110 113 60
f 116 60 113
f 63 116 67
f 116 63 60
f 68 67 116
f 59 60 62
f 59 62 15
f 59 8 58
f 59 58 52
f 59 15 22
f 14 15 22
f 8 59 15
f 15 14 8
f 7 8 14
f 14 13 7
f 8 7 51
f 58 3 52
f 3 58 8
f 51 3 8
f 46 52 3
f 3 51 46
f 21 22 27
f 22 21 14
f 27 26 21
f 26 25 20
f 20 21 26
f 21 20 13
f 13 14 21
f 45 46 51
f 51 2 45
f 44 45 2
f 2 50 44
f 2 51 7
f 13 6 7
f 1 7 6
f 50 2 7
f 7 1 50
f 49 50 1
f 49 1 6
f 6 5 49
f 5 4 49
f 50 49 44
f 43 44 49
f 17 18 23
f 18 17 10
f 10 11 18
f 19 18 11
f 11 12 19
f 24 23 18
f 18 19 24
f 11 10 4
f 4 5 11
f 12 11 5
f 5 6 12
f 13 12 6
f 20 19 12
f 12 13 20
f 25 24 19
f 19 20 25
f 22 72 27
f 72 22 73
f 34 72 73
f 72 34 27
f 74 79 73
f 73 79 34
f 33 27 34
f 34 78 33
f 60 63 62
f 66 63 67
f 15 62 63
f 63 66 15
f 68 74 67
f 73 67 74
f 22 15 66
f 22 66 67
f 67 73 22
f 74 126 79
f 127 126 124
f 132 127 128
f 131 126 127
f 127 132 131
f 126 131 79
f 182 124 177
f 119 177 124
f 124 123 119
f 124 126 123
f 74 123 126
f 123 68 119
f 123 74 68
f 106 53 105
f 107 110 106
f 53 106 110
f 110 54 53
f 54 59 53
f 53 59 52
f 105 52 46
f 52 105 53
f 233 299 234
f 233 234 236
f 236 183 233
f 182 177 183
f 183 124 182
f 232 233 183
f 183 177 232
f 182 232 177
f 236 186 183
f 186 236 238
f 127 186 128
f 124 183 186
f 186 127 124
f 190 137 132
f 132 188 190
f 132 128 188
f 128 186 188
f 243 188 186
f 186 238 243
f 188 243 242
f 247 190 188
f 132 137 136
f 136 131 132
f 85 79 131
f 84 83 40
f 83 84 92
f 33 78 40
f 84 40 78
f 78 34 84
f 85 84 34
f 34 79 85
f 136 92 84
f 84 85 136
f 85 131 136
f 97 145 96
f 91 97 96
f 97 91 145
f 92 145 91
f 91 83 92
f 136 146 145
f 145 135 136
f 145 92 135
f 136 135 92
f 255 263 262
f 263 255 201
f 201 256 263
f 202 201 145
f 145 146 202
f 256 201 202
f 264 256 202
f 256 264 263
f 332 263 264
f 263 332 331
f 146 136 137
f 137 147 146
f 147 194 146
f 194 203 202
f 202 146 194
f 150 151 199
f 200 199 151
f 199 200 205
f 151 150 144
f 151 144 96
f 96 145 151
f 201 200 151
f 201 151 145
f 262 205 200
f 255 200 201
f 200 255 262
f 251 194 195
f 195 190 251
f 251 203 194
f 195 194 147
f 195 147 137
f 137 190 195
f 190 247 252
f 252 251 190
f 252 318 325
f 252 319 318
f 318 319 325
f 319 252 247
f 247 248 319
f 248 312 319
f 399 319 312
f 399 325 319
f 252 325 324
f 257 324 333
f 333 323 257
f 251 252 324
f 324 257 251
f 410 332 333
f 332 410 409
f 409 337 332
f 323 333 332
f 264 323 332
f 203 251 257
f 202 257 323
f 323 264 202
f 257 202 203
f 333 324 325
f 325 411 333
f 399 405 325
f 405 483 404
f 411 325 405
f 405 404 411
f 491 411 404
f 491 404 483
f 410 333 411
f 411 491 410
f 490 410 491
f 410 490 409
f 396 475 480
f 565 479 480
f 399 480 479
f 480 399 396
f 312 396 399
f 396 312 313
f 396 313 310
f 310 393 396
f 393 310 306
f 306 391 393
f 393 473 472
f 473 393 391
f 391 470 473
f 560 473 470
f 560 472 473
f 475 396 393
f 393 472 475
f 476 475 472
f 305 306 310
f 310 309 305
f 238 305 309
f 309 243 238
f 309 310 313
f 313 312 309
f 243 309 312
f 312 248 243
f 188 243 248
f 248 247 188
f 305 238 236
f 305 236 302
f 306 305 302
f 302 303 306
f 388 302 386
f 300 386 302
f 234 300 302
f 302 236 234
f 300 234 299
f 391 306 303
f 391 303 302
f 302 389 391
f 469 389 388
f 388 467 469
f 391 469 470
f 469 391 389
f 627 684 685
f 685 628 627
f 685 687 628
f 630 628 687
f 628 630 627
f 687 685 750
f 750 689 687
f 630 687 689
f 689 632 630
f 630 558 556
f 558 630 632
f 558 470 469
f 467 556 558
f 558 469 467
f 553 627 630
f 630 555 553
f 630 556 555
f 467 555 556
f 467 553 555
f 869 874 810
f 810 807 869
f 750 685 747
f 807 810 750
f 750 747 807
f 746 807 747
f 746 747 685
f 685 684 746
f 806 869 807
f 807 746 806
f 806 746 801
f 684 740 746
f 684 627 626
f 626 679 684
f 740 684 679
f 739 740 679
f 801 746 740
f 740 739 801
f 553 467 465
f 553 465 552
f 552 626 627
f 627 553 552
f 464 465 388
f 465 464 552
f 465 467 388
f 388 386 464
f 388 389 302
f 621 547 548
f 547 621 626
f 621 551 552
f 552 547 621
f 621 620 551
f 620 610 619
f 620 611 610
f 618 619 610
f 610 609 618
f 612 611 620
f 620 621 612
f 545 546 618
f 679 626 621
f 679 621 620
f 552 620 621
f 620 552 551
f 626 552 621
f 356 366 355
f 282 281 366
f 366 356 282
f 375 374 291
f 447 455 368
f 447 368 367
f 367 282 356
f 729 728 732
f 803 732 742
f 742 802 803
f 794 729 732
f 732 803 794
f 742 808 802
f 809 802 808
f 863 803 802
f 802 809 863
f 925 864 926
f 179 235 231
f 231 174 179
f 174 231 227
f 227 170 174
f 227 228 170
f 228 227 223
f 171 228 223
f 223 167 171
f 228 171 170
f 167 168 171
f 180 179 174
f 174 175 180
f 175 174 170
f 170 171 175
f 615 606 668
f 668 672 615
f 674 669 731
f 734 674 731
f 673 669 674
f 674 734 673
f 795 734 793
f 731 793 734
f 733 673 734
f 668 673 672
f 673 668 669
f 904 828 895
f 890 961 895
f 960 895 961
f 903 904 895
f 895 960 903
f 961 890 954
f 960 961 954
f 954 953 960
f 953 954 950
f 950 1016 953
f 1024 953 1016
f 960 953 959
f 967 903 960
f 960 959 967
f 954 890 950
f 739 800 801
f 799 800 739
f 739 738 799
f 866 862 800
f 800 799 866
f 872 941 938
f 938 873 872
f 873 868 867
f 867 872 873
f 874 869 873
f 868 873 869
f 806 868 869
f 800 868 806
f 806 801 800
f 862 867 868
f 868 800 862
f 867 862 866
f 810 874 878
f 878 813 810
f 813 878 883
f 883 816 813
f 816 883 820
f 820 821 816
f 755 816 821
f 821 757 755
f 757 694 755
f 750 810 813
f 813 753 750
f 753 813 816
f 816 755 753
f 701 766 765
f 760 765 766
f 765 760 830
f 701 702 766
f 702 701 643
f 702 697 760
f 760 766 702
f 761 760 697
f 697 698 761
f 757 761 698
f 698 694 757
f 821 760 761
f 761 757 821
f 824 830 760
f 821 824 760
f 824 821 820
f 565 639 569
f 565 480 475
f 475 562 565
f 562 475 476
f 562 637 636
f 639 565 562
f 562 636 639
f 636 698 639
f 698 636 637
f 637 694 698
f 697 639 698
f 643 569 639
f 702 643 639
f 639 697 702
f 569 568 565
f 483 565 568
f 565 483 479
f 568 569 643
f 643 642 568
f 642 575 568
f 491 568 575
f 575 574 491
f 568 491 483
f 399 479 483
f 483 405 399
f 655 717 716
f 655 647 717
f 707 717 647
f 647 708 707
f 707 716 717
f 647 655 574
f 574 575 647
f 642 647 575
f 647 642 708
f 701 708 642
f 642 643 701
f 707 708 773
f 765 708 701
f 765 773 708
f 779 780 770
f 780 779 716
f 780 781 771
f 771 770 780
f 716 707 772
f 781 780 716
f 716 772 781
f 707 773 772
f 765 772 773
f 772 765 829
f 838 771 781
f 781 772 838
f 772 829 838
f 779 770 714
f 706 714 770
f 770 771 837
f 771 827 837
f 828 837 827
f 771 828 827
f 771 838 828
f 714 652 581
f 581 653 714
f 653 654 714
f 581 582 653
f 654 653 582
f 654 655 716
f 716 715 654
f 715 714 654
f 715 716 779
f 779 714 715
f 582 581 498
f 582 498 489
f 489 490 582
f 490 489 409
f 490 499 582
f 583 582 499
f 499 573 583
f 573 499 490
f 490 491 573
f 574 573 491
f 655 583 573
f 573 574 655
f 582 655 654
f 582 583 655
f 689 750 753
f 689 753 755
f 755 692 689
f 632 689 692
f 692 634 632
f 692 755 694
f 634 692 694
f 694 637 634
f 560 634 637
f 637 562 560
f 472 560 562
f 562 476 472
f 632 560 558
f 560 632 634
f 470 558 560
f 683 675 617
f 406 402 403
f 486 485 406
f 402 406 485
f 485 482 402
f 401 402 482
f 401 400 320
f 321 403 402
f 402 401 321
f 320 321 401
f 321 320 317
f 616 607 669
f 669 673 616
f 524 598 607
f 598 524 514
f 607 608 524
f 525 524 608
f 608 534 525
f 524 525 514
f 525 515 514
f 436 525 447
f 525 436 514
f 431 514 436
f 455 447 525
f 525 534 455
f 356 436 367
f 447 367 436
f 508 514 431
f 508 431 507
f 598 514 593
f 508 593 514
f 430 507 431
f 422 421 425
f 342 422 425
f 430 349 425
f 345 342 425
f 431 350 430
f 507 425 501
f 425 507 430
f 421 501 425
f 350 436 356
f 350 431 436
f 356 355 350
f 608 543 544
f 544 534 608
f 543 608 607
f 616 543 607
f 522 452 532
f 452 522 444
f 374 375 380
f 375 381 380
f 338 418 419
f 421 419 418
f 421 418 420
f 339 419 341
f 422 342 421
f 339 341 421
f 421 342 339
f 341 419 421
f 339 338 419
f 338 339 265
f 339 266 265
f 268 265 266
f 265 268 267
f 345 341 342
f 341 345 268
f 339 342 341
f 341 268 339
f 266 339 268
f 268 345 344
f 344 340 268
f 267 268 340
f 265 267 340
f 340 338 265
f 340 344 343
f 281 291 374
f 374 366 281
f 545 535 544
f 544 535 461
f 545 618 609
f 609 535 545
f 535 609 536
f 610 599 537
f 536 609 610
f 610 537 536
f 537 528 536
f 528 537 599
f 273 214 160
f 160 213 273
f 214 273 274
f 107 159 160
f 212 160 159
f 160 212 213
f 273 213 212
f 159 211 212
f 360 274 273
f 610 611 600
f 600 599 610
f 529 528 599
f 529 599 600
f 690 633 635
f 635 691 690
f 635 693 691
f 693 758 756
f 693 696 758
f 696 759 758
f 754 691 693
f 693 756 754
f 822 818 759
f 756 758 759
f 822 759 825
f 825 823 822
f 818 822 823
f 823 887 818
f 887 819 818
f 759 817 756
f 817 759 818
f 814 817 818
f 754 756 817
f 817 814 754
f 764 763 767
f 703 767 763
f 703 704 767
f 763 764 825
f 825 759 763
f 763 762 700
f 762 763 759
f 699 762 759
f 762 699 700
f 700 703 763
f 641 703 700
f 880 943 879
f 884 880 879
f 879 819 884
f 880 884 943
f 947 943 884
f 408 331 332
f 332 416 408
f 416 332 337
f 337 417 416
f 415 408 416
f 417 337 409
f 409 489 417
f 498 417 489
f 417 498 416
f 497 416 498
f 581 497 498
f 416 497 415
f 496 415 497
